<?xml version="1.0" encoding="UTF-8"?>
<svg version="1.1" xmlns="http://www.w3.org/2000/svg" width="777" height="723">
<path d="M0 0 C50.82 0 101.64 0 154 0 C154.33 0.99 154.66 1.98 155 3 C155.99 3.33 156.98 3.66 158 4 C158 6.97 158 9.94 158 13 C157.34 13.33 156.68 13.66 156 14 C155.41114767 16.46729126 154.92220289 18.87889942 154.5 21.375 C153.26327434 28.6050885 153.26327434 28.6050885 151 32 C150.835 33.03125 150.67 34.0625 150.5 35.125 C150.335 36.07375 150.17 37.0225 150 38 C149.34 38.33 148.68 38.66 148 39 C147.46103409 41.29504715 147.01971988 43.6132965 146.625 45.9375 C145.61380637 51.5003816 144.254474 56.4993596 141.984375 61.703125 C140.40718811 65.38322775 139.21539763 69.18807106 138 73 C137.34 73 136.68 73 136 73 C135.97421875 73.72703125 135.9484375 74.4540625 135.921875 75.203125 C135.47964679 83.04262503 133.77694106 89.6808505 131 97 C130.70480469 97.80050781 130.40960938 98.60101563 130.10546875 99.42578125 C129.41441353 101.28788572 128.70848064 103.14445546 128 105 C127.67 105.99 127.34 106.98 127 108 C126.34 108 125.68 108 125 108 C125.061875 109.5778125 125.061875 109.5778125 125.125 111.1875 C125.00446301 114.86387823 124.72166866 118.27833134 122 121 C121.67583533 122.34675687 121.39083201 123.70302578 121.125 125.0625 C120.30639662 128.94009494 119.12248232 132.46120617 117.6640625 136.13671875 C116.74662352 138.71094459 116.33804474 141.29564208 116 144 C115.34 144 114.68 144 114 144 C113.87625 145.093125 113.7525 146.18625 113.625 147.3125 C113 151 113 151 111 154 C110.62080225 155.94991159 110.62080225 155.94991159 110.5 158 C110.25179145 161.27635286 109.94435842 162.08346237 108 165 C107.14977444 168.33713534 106.47318953 171.69320104 105.78125 175.06640625 C105 178 105 178 103 180 C102.87625 181.051875 102.7525 182.10375 102.625 183.1875 C102.01836399 186.88797969 100.92580837 188.86309666 98.98046875 191.98828125 C97.38454157 195.2627932 96.99060127 198.69022037 96.4375 202.265625 C95.85339517 205.91628021 94.94371037 209.42738219 94 213 C93.34 213 92.68 213 92 213 C91.67 216.63 91.34 220.26 91 224 C90.01 224 89.02 224 88 224 C87.87625 225.19625 87.7525 226.3925 87.625 227.625 C87.16795536 231.29423164 86.23710237 234.50700509 85 238 C84.28973516 240.65745348 83.64551425 243.32572669 83 246 C82.34 246 81.68 246 81 246 C80.67 248.97 80.34 251.94 80 255 C79.34 255 78.68 255 78 255 C77.67 258.3 77.34 261.6 77 265 C76.34 265 75.68 265 75 265 C73.91552682 269.06917372 73.27645515 273.1910979 72.59765625 277.34375 C72.02896047 279.87128681 71.1917121 281.72186764 70 284 C69.61709538 285.99110401 69.27395385 287.99100513 69 290 C68.34 290 67.68 290 67 290 C66.896875 291.134375 66.79375 292.26875 66.6875 293.4375 C66.09621132 298.21004433 64.61382304 302.49127791 63 307 C62.649375 308.155 62.29875 309.31 61.9375 310.5 C61 313 61 313 59 314 C58.53248212 316.35599235 58.53248212 316.35599235 58.375 319.0625 C58.26285156 320.44115234 58.26285156 320.44115234 58.1484375 321.84765625 C58.09945313 322.55792969 58.05046875 323.26820313 58 324 C57.34 324 56.68 324 56 324 C55.67 326.31 55.34 328.62 55 331 C54.34 331 53.68 331 53 331 C53 333.97 53 336.94 53 340 C52.34 340.33 51.68 340.66 51 341 C50.59270772 343.32156597 50.25561323 345.6568787 50 348 C49.34 348 48.68 348 48 348 C47.93941406 348.63808594 47.87882812 349.27617187 47.81640625 349.93359375 C47.73261719 350.75988281 47.64882813 351.58617187 47.5625 352.4375 C47.48128906 353.26121094 47.40007812 354.08492188 47.31640625 354.93359375 C47 357 47 357 46 358 C45.855625 359.134375 45.71125 360.26875 45.5625 361.4375 C45 365 45 365 43 367 C42.835 368.010625 42.67 369.02125 42.5 370.0625 C42.335 371.031875 42.17 372.00125 42 373 C41.34 373.33 40.68 373.66 40 374 C39.53248212 376.35599235 39.53248212 376.35599235 39.375 379.0625 C39.26285156 380.44115234 39.26285156 380.44115234 39.1484375 381.84765625 C39.09945313 382.55792969 39.05046875 383.26820313 39 384 C38.01 384 37.02 384 36 384 C35.34 388.62 34.68 393.24 34 398 C33.01 398.33 32.02 398.66 31 399 C31 401.31 31 403.62 31 406 C85.78 406 140.56 406 197 406 C197 405.34 197 404.68 197 404 C252.44 404 307.88 404 365 404 C365.33 404.66 365.66 405.32 366 406 C366.66 406.28875 367.32 406.5775 368 406.875 C370 408 370 408 370.75 410.125 C370.87375 411.053125 370.87375 411.053125 371 412 C371.66 412 372.32 412 373 412 C373.33 415.63 373.66 419.26 374 423 C374.99 423.33 375.98 423.66 377 424 C379.19590035 429.03227163 380.72514155 434.23918839 382.25390625 439.5078125 C383.75898097 444.53523487 385.52289905 449.42758355 387.4375 454.3125 C389.19807206 458.85074881 390.83779715 463.39193729 392.30859375 468.03125 C393.0528565 470.28231015 393.0528565 470.28231015 394.6875 473.375 C396.47176462 478.30296895 396.25314324 482.81525139 396 488 C396.99 488 397.98 488 399 488 C404.1967501 498.60443839 404.1967501 498.60443839 404.6875 503.125 C404.790625 504.07375 404.89375 505.0225 405 506 C405.66 506.33 406.32 506.66 407 507 C407 509.64 407 512.28 407 515 C407.99 515 408.98 515 410 515 C410.13277344 515.67546875 410.26554688 516.3509375 410.40234375 517.046875 C410.57894531 517.93890625 410.75554688 518.8309375 410.9375 519.75 C411.11152344 520.63171875 411.28554688 521.5134375 411.46484375 522.421875 C411.92368488 524.63235053 412.43336074 526.81512068 413 529 C413.66 529 414.32 529 415 529 C415 531.64 415 534.28 415 537 C415.99 537 416.98 537 418 537 C418.28875 538.010625 418.5775 539.02125 418.875 540.0625 C419.05804687 540.70058594 419.24109375 541.33867188 419.4296875 541.99609375 C419.9628999 543.86964142 420.48198449 545.74719377 421 547.625 C421.91854802 550.93180692 421.91854802 550.93180692 423.125 553.75 C424 556 424 556 424 559 C424.66 559 425.32 559 426 559 C426.268125 559.99 426.53625 560.98 426.8125 562 C428.50718854 569.02987636 428.50718854 569.02987636 432 575 C432.04080783 576.99958364 432.04254356 579.00045254 432 581 C432.66 581 433.32 581 434 581 C434.26554688 581.98742187 434.53109375 582.97484375 434.8046875 583.9921875 C435.16110753 585.28655498 435.51789766 586.58082059 435.875 587.875 C436.04902344 588.52597656 436.22304688 589.17695312 436.40234375 589.84765625 C437.49529579 593.8068437 437.49529579 593.8068437 440 597 C441.54220109 601.62660327 442.40800622 606.16538411 443 611 C443.66 611 444.32 611 445 611 C445.33 613.97 445.66 616.94 446 620 C446.66 620 447.32 620 448 620 C448.0928125 621.7325 448.0928125 621.7325 448.1875 623.5 C448.69762341 627.87469473 450.46663458 630.53158648 452.921875 634.1015625 C454.43934585 636.77363073 454.37476079 639.00191366 454 642 C454.66 642 455.32 642 456 642 C456 643.98 456 645.96 456 648 C456.99 648 457.98 648 459 648 C459.04898438 648.71027344 459.09796875 649.42054688 459.1484375 650.15234375 C459.22320313 651.07144531 459.29796875 651.99054687 459.375 652.9375 C459.44460938 653.85402344 459.51421875 654.77054688 459.5859375 655.71484375 C459.72257813 656.46894531 459.85921875 657.22304688 460 658 C460.66 658.33 461.32 658.66 462 659 C464.11973466 663.8282845 464.58444049 667.82352713 464 673 C461.10449932 676.22837488 459.37410849 676.95213657 455.04378605 677.50615788 C453.45498175 677.52940067 451.86576438 677.53067268 450.27687073 677.5146637 C449.39886824 677.52160922 448.52086575 677.52855475 447.61625713 677.53571075 C444.67433292 677.55400647 441.73321276 677.54370925 438.79125977 677.53344727 C436.68205155 677.54050443 434.5728484 677.54924859 432.46365356 677.55955505 C426.73430787 677.58208147 421.00523799 677.57910162 415.27586484 677.57023358 C410.49438882 677.56512813 405.71296484 677.57241268 400.93149418 677.57970566 C389.65244411 677.59671505 378.37352931 677.59312832 367.09448242 677.57641602 C355.45470793 677.55949234 343.81530838 677.5753305 332.17557484 677.6076389 C322.18477652 677.63432074 312.19409503 677.64161461 302.20326465 677.63312382 C296.23498428 677.62819069 290.26692957 677.63043131 284.29867744 677.65091133 C278.68675841 677.66924622 273.07537942 677.66333611 267.46348953 677.63871193 C265.4035475 677.63369717 263.34356447 677.63721095 261.28365517 677.64986038 C258.47185132 677.66576142 255.6618322 677.65086789 252.85011292 677.62818909 C251.62661356 677.64594268 251.62661356 677.64594268 250.37839705 677.66405493 C246.29668971 677.59714598 243.75370944 677.20725084 240.51791286 674.61039639 C238.00431843 672.00447705 237.10154037 670.6514432 236.3125 667.1875 C234.72811396 659.54090957 234.72811396 659.54090957 231 653 C230.76636119 651.15108054 230.58696365 649.29511969 230.4375 647.4375 C230.31181641 645.91962891 230.31181641 645.91962891 230.18359375 644.37109375 C230.12300781 643.58863281 230.06242187 642.80617188 230 642 C229.34 642 228.68 642 228 642 C226.54106048 638.88759569 225.83546898 636.14128645 225.5 632.75 C225.335 631.5125 225.17 630.275 225 629 C224.34 628.67 223.68 628.34 223 628 C221.53863291 624.29787004 220.58658408 620.4653153 219.5625 616.625 C217.96602753 610.70441366 215.97392869 605.14264311 213.4375 599.5625 C212.32060706 596.79454792 211.63778434 594.56392169 211.0625 591.6875 C210.20243621 587.40175839 208.70276222 583.62685244 206.90234375 579.65234375 C205.70000073 576.11818396 205.42916498 572.70943096 205 569 C181.43170151 568.84502315 157.86336771 568.69703487 134.29497528 568.5570364 C123.34815715 568.49185386 112.40136082 568.4245094 101.45458984 568.35180664 C91.89706041 568.28833628 82.3395149 568.22919585 72.78192854 568.17494446 C67.73612918 568.14616017 62.69036134 568.11541945 57.64460754 568.07946587 C34.40296082 567.9153619 11.22471322 568.03077818 -12 569 C-12.66 572.3 -13.32 575.6 -14 579 C-14.66 579 -15.32 579 -16 579 C-16.07347656 579.93972656 -16.07347656 579.93972656 -16.1484375 580.8984375 C-16.22320312 581.71570313 -16.29796875 582.53296875 -16.375 583.375 C-16.47941406 584.59316406 -16.47941406 584.59316406 -16.5859375 585.8359375 C-17 588 -17 588 -19 590 C-19.69356423 592.32548007 -20.36149212 594.65880445 -21 597 C-21.33 597.33 -21.66 597.66 -22 598 C-22.32200337 599.74467283 -22.60769643 601.49611339 -22.875 603.25 C-23.61139925 607.55212191 -24.69665094 610.29461238 -27 614 C-27.37261732 615.9905409 -27.37261732 615.9905409 -27.5625 618.125 C-28 622 -28 622 -30 625 C-32.69301379 632.5004642 -34.65344039 640.15097491 -36 648 C-36.66 648 -37.32 648 -38 648 C-38.12375 648.969375 -38.2475 649.93875 -38.375 650.9375 C-38.58125 651.948125 -38.7875 652.95875 -39 654 C-39.66 654.33 -40.32 654.66 -41 655 C-41.31807608 656.82597648 -41.31807608 656.82597648 -41.375 659 C-41.92728947 665.07518412 -43.92344907 670.19193251 -47.55024719 675.09636021 C-51.01471941 677.78851231 -54.21814965 677.55156098 -58.42651367 677.50120544 C-59.2846551 677.50673984 -60.14279654 677.51227424 -61.02694225 677.51797634 C-63.90757744 677.53160905 -66.78735012 677.51659948 -69.66796875 677.50170898 C-71.73101165 677.50549121 -73.79405201 677.51099044 -75.85708618 677.51808167 C-81.46448466 677.53206612 -87.07157733 677.52084542 -92.67895889 677.50437045 C-98.54142764 677.4905408 -104.40387826 677.49697765 -110.26635742 677.50050354 C-120.11219218 677.50320731 -129.95790515 677.48971566 -139.80371094 677.46655273 C-151.19405846 677.43994201 -162.58420232 677.43819531 -173.97457027 677.4499411 C-184.92241464 677.46071259 -195.87018518 677.45453674 -206.81802368 677.44038582 C-211.4814325 677.43462057 -216.14478739 677.43471294 -220.80819702 677.43945122 C-226.29769996 677.44421628 -231.78697928 677.43413871 -237.27643967 677.41249657 C-239.29367697 677.40692213 -241.31093573 677.40646939 -243.32817459 677.41144943 C-246.07686172 677.41738524 -248.82486124 677.40492992 -251.57348633 677.38768005 C-252.77756527 677.39669512 -252.77756527 677.39669512 -254.00596905 677.40589231 C-257.26969675 677.36851745 -259.60705132 677.2167371 -262.49345398 675.62469578 C-265.17151432 672.73661053 -264.52608393 669.66482134 -264.40234375 665.91796875 C-263.89032623 662.204599 -262.64533493 659.3265844 -260.94921875 656.01171875 C-259.7239356 653.41492524 -259.42329006 650.82193372 -259 648 C-258.34 647.67 -257.68 647.34 -257 647 C-256.53476937 645.10466658 -256.53476937 645.10466658 -256.375 642.9375 C-256.25125 641.638125 -256.1275 640.33875 -256 639 C-255.34 639 -254.68 639 -254 639 C-253.67 636.36 -253.34 633.72 -253 631 C-252.34 631 -251.68 631 -251 631 C-251.020625 630.05125 -251.04125 629.1025 -251.0625 628.125 C-251 625 -251 625 -250 623 C-249.34 623 -248.68 623 -248 623 C-248 621.02 -248 619.04 -248 617 C-247.34 617 -246.68 617 -246 617 C-245.67 614.03 -245.34 611.06 -245 608 C-244.01 607.67 -243.02 607.34 -242 607 C-242.04125 606.319375 -242.0825 605.63875 -242.125 604.9375 C-241.97450035 601.40075832 -241.05624147 598.36676967 -240 595 C-239.34 595 -238.68 595 -238 595 C-237.95101562 594.36191406 -237.90203125 593.72382812 -237.8515625 593.06640625 C-237.77679688 592.24011719 -237.70203125 591.41382813 -237.625 590.5625 C-237.55539063 589.73878906 -237.48578125 588.91507813 -237.4140625 588.06640625 C-237.27742188 587.38449219 -237.14078125 586.70257812 -237 586 C-236.34 585.67 -235.68 585.34 -235 585 C-234.20058692 582.47630543 -233.5063892 580.00281094 -232.875 577.4375 C-232.60236328 576.37112305 -232.60236328 576.37112305 -232.32421875 575.28320312 C-231.87555535 573.52397031 -231.43684043 571.76220583 -231 570 C-230.34 570 -229.68 570 -229 570 C-228.814375 568.4840625 -228.814375 568.4840625 -228.625 566.9375 C-228.01914665 563.12062388 -227.12806088 559.68499888 -226 556 C-225.34 556 -224.68 556 -224 556 C-223.9175 554.700625 -223.835 553.40125 -223.75 552.0625 C-223.26749051 547.60802834 -221.92551688 544.16066038 -219.98828125 540.15234375 C-218.61825147 537.16860299 -217.81102346 534.17650855 -217 531 C-216.34 531 -215.68 531 -215 531 C-215 529.35 -215 527.7 -215 526 C-214.34 525.67 -213.68 525.34 -213 525 C-212.41641231 522.95374418 -212.41641231 522.95374418 -212.0625 520.5 C-210.96628337 514.51362949 -209.6307649 508.67445444 -206.4375 503.4375 C-204.47899175 500.11655123 -203.83810203 496.73533404 -203 493 C-201.2460321 486.11904903 -198.59883102 479.59626958 -196 473 C-195.01 473 -194.02 473 -193 473 C-193.05220703 472.14728516 -193.05220703 472.14728516 -193.10546875 471.27734375 C-193.30020868 465.72261898 -192.48873226 462.07318498 -190 457 C-189.04595446 454.25711906 -188.15797513 451.49882364 -187.28125 448.73046875 C-187.0234375 447.93253906 -186.765625 447.13460938 -186.5 446.3125 C-186.2628125 445.56613281 -186.025625 444.81976563 -185.78125 444.05078125 C-185 442 -185 442 -183 439 C-182.47446839 437.0606929 -182.47446839 437.0606929 -182.125 434.9375 C-181.22556456 430.56071967 -179.74082334 426.67037754 -178.0078125 422.5625 C-176.66692356 419.15310796 -175.7245105 415.67310583 -174.80859375 412.12890625 C-174 410 -174 410 -172.453125 408.5078125 C-170.51157358 406.49319194 -170.51199073 405.06547208 -170.3125 402.3125 C-170.24675781 401.50425781 -170.18101562 400.69601562 -170.11328125 399.86328125 C-170.07589844 399.24839844 -170.03851563 398.63351562 -170 398 C-169.34 398 -168.68 398 -168 398 C-167.87625 396.88625 -167.7525 395.7725 -167.625 394.625 C-167 391 -167 391 -165 389 C-164.38649958 386.8105352 -163.85440188 384.59768143 -163.375 382.375 C-163.11460937 381.18648438 -162.85421875 379.99796875 -162.5859375 378.7734375 C-162.39257812 377.85820312 -162.19921875 376.94296875 -162 376 C-161.34 376 -160.68 376 -160 376 C-159.87625 374.88625 -159.7525 373.7725 -159.625 372.625 C-159 369 -159 369 -157 367 C-156.814375 365.4840625 -156.814375 365.4840625 -156.625 363.9375 C-155.97660502 359.8526116 -154.71908525 356.89850289 -152.98046875 353.1953125 C-151.64628884 350.20802521 -150.82001503 347.16291512 -150 344 C-149.62840946 342.68653066 -149.25346998 341.37400361 -148.875 340.0625 C-148.58625 339.051875 -148.2975 338.04125 -148 337 C-147.34 337 -146.68 337 -146 337 C-145.67 334.36 -145.34 331.72 -145 329 C-144.34 329 -143.68 329 -143 329 C-142.9175 327.865625 -142.835 326.73125 -142.75 325.5625 C-142.24274213 321.33286454 -140.75060447 318.06375931 -138.921875 314.25390625 C-137.52760441 310.84503282 -137.26609374 307.65878895 -137 304 C-136.01 304 -135.02 304 -134 304 C-133.33508269 300.96037802 -132.88185039 297.9658556 -132.5625 294.875 C-132 291 -132 291 -130 288 C-129.60986284 286.0103005 -129.26797351 284.00980131 -129 282 C-128.34 282 -127.68 282 -127 282 C-126.814375 280.0509375 -126.814375 280.0509375 -126.625 278.0625 C-126.4140625 275.84765625 -126.4140625 275.84765625 -126 274 C-125.34 273.67 -124.68 273.34 -124 273 C-123.27359045 270.68456957 -122.61568542 268.34730065 -122 266 C-121.34427209 263.99638693 -120.68124706 261.99508067 -120 260 C-119.34 260 -118.68 260 -118 260 C-118 257.36 -118 254.72 -118 252 C-117.34 251.67 -116.68 251.34 -116 251 C-115.29508733 248.67793475 -114.62787571 246.34406932 -114 244 C-113.67 243.67 -113.34 243.34 -113 243 C-112.76924918 241.65252916 -112.58846937 240.29622435 -112.4375 238.9375 C-112.293125 237.638125 -112.14875 236.33875 -112 235 C-111.34 235 -110.68 235 -110 235 C-109.855625 234.195625 -109.71125 233.39125 -109.5625 232.5625 C-109 230 -109 230 -108 229 C-107.76924918 227.65252916 -107.58846937 226.29622435 -107.4375 224.9375 C-107.293125 223.638125 -107.14875 222.33875 -107 221 C-106.34 221 -105.68 221 -105 221 C-104.67 218.36 -104.34 215.72 -104 213 C-103.34 213 -102.68 213 -102 213 C-101.67 211.02 -101.34 209.04 -101 207 C-100.34 207 -99.68 207 -99 207 C-99 204.36 -99 201.72 -99 199 C-98.34 198.67 -97.68 198.34 -97 198 C-96.34444881 195.47266765 -96.34444881 195.47266765 -96 193 C-95.01 193 -94.02 193 -93 193 C-93.04640625 192.28714844 -93.0928125 191.57429687 -93.140625 190.83984375 C-93.39635516 184.05386124 -92.65624486 180.65056023 -89 175 C-88.63079809 173.00630969 -88.28674418 171.00720923 -88 169 C-87.34 168.67 -86.68 168.34 -86 168 C-85.31527335 166.11235097 -85.31527335 166.11235097 -84.875 163.9375 C-84.70742187 163.20402344 -84.53984375 162.47054687 -84.3671875 161.71484375 C-84.24601563 161.14894531 -84.12484375 160.58304688 -84 160 C-83.34 160 -82.68 160 -82 160 C-82.0825 158.865625 -82.165 157.73125 -82.25 156.5625 C-82.26563866 152.144579 -80.92162559 149.01297402 -79.01171875 145.0859375 C-77.73753736 142.45886081 -76.87036786 139.78517715 -76 137 C-75.50559087 135.43572194 -75.00519551 133.87332791 -74.5 132.3125 C-74.14421875 131.19294922 -74.14421875 131.19294922 -73.78125 130.05078125 C-73 128 -73 128 -71 125 C-70.47519252 123.02650739 -70.47519252 123.02650739 -70.125 120.875 C-69.11180674 115.89891375 -67.21545377 111.54920846 -65 107 C-64.34 107 -63.68 107 -63 107 C-63.103125 105.96875 -63.20625 104.9375 -63.3125 103.875 C-63.37215597 97.26511834 -60.3812573 91.05519714 -58 85 C-57.34 85 -56.68 85 -56 85 C-55.855625 83.741875 -55.71125 82.48375 -55.5625 81.1875 C-55.26251314 78.57332877 -54.84186703 76.52560108 -54 74 C-53.34 74 -52.68 74 -52 74 C-51.98582031 73.39414063 -51.97164062 72.78828125 -51.95703125 72.1640625 C-51.60993477 66.06642169 -50.17226866 61.89546468 -47.26171875 56.56640625 C-45.5418608 53.06811933 -44.68941115 49.50622137 -43.74609375 45.73828125 C-41.96042083 39.18458116 -39.13533637 33.00939471 -36 27 C-35.6803125 26.32839844 -35.360625 25.65679687 -35.03125 24.96484375 C-34.6909375 24.25457031 -34.350625 23.54429688 -34 22.8125 C-33.690625 22.15894531 -33.38125 21.50539063 -33.0625 20.83203125 C-31.91452611 18.85262039 -30.74964097 17.47170321 -29 16 C-28.34 16 -27.68 16 -27 16 C-27 15.34 -27 14.68 -27 14 C-26.01 13.67 -25.02 13.34 -24 13 C-23.484375 12.484375 -22.96875 11.96875 -22.4375 11.4375 C-21.963125 10.963125 -21.48875 10.48875 -21 10 C-20.34 10 -19.68 10 -19 10 C-19 9.34 -19 8.68 -19 8 C-17.2984375 7.319375 -17.2984375 7.319375 -15.5625 6.625 C-11.95278308 5.42904194 -11.95278308 5.42904194 -11 3 C-8.49609375 2.5859375 -8.49609375 2.5859375 -5.4375 2.375 C-3.91962891 2.26285156 -3.91962891 2.26285156 -2.37109375 2.1484375 C-1.19740234 2.07496094 -1.19740234 2.07496094 0 2 C0 1.34 0 0.68 0 0 Z " fill="#0D968B" transform="translate(287,20)"/>
<path d="M0 0 C2.31 0 4.62 0 7 0 C7.99 2.475 7.99 2.475 9 5 C9.66 5 10.32 5 11 5 C11.19335938 5.69867188 11.38671875 6.39734375 11.5859375 7.1171875 C11.97652344 8.48230469 11.97652344 8.48230469 12.375 9.875 C12.63023437 10.77992187 12.88546875 11.68484375 13.1484375 12.6171875 C13.8604315 15.14569726 13.8604315 15.14569726 16 17 C16.34375 18.91015625 16.34375 18.91015625 16.5 21.0625 C16.665 22.361875 16.83 23.66125 17 25 C17.66 25.33 18.32 25.66 19 26 C19.4140625 28.06640625 19.4140625 28.06640625 19.625 30.5625 C19.73714844 31.80193359 19.73714844 31.80193359 19.8515625 33.06640625 C19.90054688 33.70449219 19.94953125 34.34257813 20 35 C20.66 35 21.32 35 22 35 C22.0825 36.19625 22.165 37.3925 22.25 38.625 C22.77421404 42.94026923 24.46118903 45.46105138 27 49 C27.72693904 50.97888961 28.39816251 52.97954558 29 55 C29.33 55.804375 29.66 56.60875 30 57.4375 C31.22329676 60.57219794 32.07546398 63.76412393 33 67 C35.36948079 74.5275342 37.80594468 81.92126156 41.16015625 89.07421875 C42.41803509 91.95856418 43.16837096 94.9704942 44 98 C44.350625 98.66 44.70125 99.32 45.0625 100 C46 102 46 102 46.4375 105.5 C47.03374346 109.20995932 47.75624976 110.15216316 50 113 C52.69808823 118.43280208 53.32267216 122.97678636 53 129 C53.99 129.33 54.98 129.66 56 130 C56.9140625 131.77734375 56.9140625 131.77734375 57.625 133.9375 C58.33748756 136.04814864 59.00283755 138.0056751 60 140 C60.06950541 141.54023996 60.08452357 143.08334988 60.0625 144.625 C60.05347656 145.44226563 60.04445313 146.25953125 60.03515625 147.1015625 C60.01775391 148.04128906 60.01775391 148.04128906 60 149 C60.66 149 61.32 149 62 149 C64.4294516 152.6441774 64.16179575 154.71241272 64 159 C64.99 159.33 65.98 159.66 67 160 C68.0546875 162.64453125 68.0546875 162.64453125 69 166 C69.52980469 167.64548828 69.52980469 167.64548828 70.0703125 169.32421875 C70.59238281 170.98904297 70.59238281 170.98904297 71.125 172.6875 C71.65480469 174.36392578 71.65480469 174.36392578 72.1953125 176.07421875 C73 179 73 179 73 182 C73.66 182 74.32 182 75 182 C75.12375 182.804375 75.2475 183.60875 75.375 184.4375 C75.58125 185.283125 75.7875 186.12875 76 187 C76.66 187.33 77.32 187.66 78 188 C78.12375 189.010625 78.2475 190.02125 78.375 191.0625 C78.92758928 194.54381245 79.3886035 195.92282605 81.0625 198.8125 C83.59682381 203.46943437 83.38226782 207.8181473 83 213 C83.99 213 84.98 213 86 213 C86.33 214.65 86.66 216.3 87 218 C87.66 218 88.32 218 89 218 C89 220.64 89 223.28 89 226 C89.66 226 90.32 226 91 226 C91.67031719 227.9570868 92.33614683 229.91571113 93 231.875 C93.37125 232.96554688 93.7425 234.05609375 94.125 235.1796875 C95 238 95 238 95 240 C95.66 240 96.32 240 97 240 C97.33 243.96 97.66 247.92 98 252 C98.66 252 99.32 252 100 252 C100.82065069 253.87144695 101.6311584 255.74734336 102.4375 257.625 C102.88996094 258.66914063 103.34242188 259.71328125 103.80859375 260.7890625 C105 264 105 264 105.53515625 267.3359375 C105.68855469 268.21507812 105.84195313 269.09421875 106 270 C106.66 270.33 107.32 270.66 108 271 C108.49957604 272.93169403 108.99170604 274.86591573 109.4296875 276.8125 C110.01683939 279.29062356 110.01683939 279.29062356 111.5625 282.625 C112.92502994 285.82398334 113.43318352 288.59910111 114 292 C114.66 292.33 115.32 292.66 116 293 C116.4921875 294.78515625 116.4921875 294.78515625 116.875 297.0625 C117.69632168 301.20853183 119.12568694 304.39893052 121.12890625 308.08984375 C122 310 122 310 122.5 313.6875 C122.72330461 317.07248378 122.72330461 317.07248378 124.9375 319.375 C127.39834051 322.50697884 127.78511134 324.89232079 128.50390625 328.734375 C129.22294513 332.01817461 130.63818616 334.93591885 132 338 C132.39590706 339.28541253 132.77155321 340.57727 133.125 341.875 C133.68110322 344.84452363 133.68110322 344.84452363 135 346 C135.14115161 348.67058851 135.04247107 351.32432238 135 354 C127.00437201 357.02327609 119.69137604 357.4186862 111.20263672 357.35644531 C109.83703989 357.3572383 108.4714433 357.35934203 107.10585022 357.36264038 C103.40587362 357.3677547 99.70617782 357.35424452 96.00624609 357.33711338 C92.05773042 357.32185876 88.10921525 357.32324498 84.16067505 357.32244873 C77.4742573 357.31875419 70.78794194 357.30383442 64.1015625 357.28125 C55.73867294 357.25304523 47.37586747 357.24213467 39.01293564 357.23744965 C3.49150671 357.2174112 -32.02052139 356.98881116 -67.53640747 356.34307861 C-69.38646676 356.30972223 -69.38646676 356.30972223 -71.27390099 356.27569199 C-73.63601719 356.23266367 -75.99811117 356.18839294 -78.36017799 356.14273453 C-83.50729185 356.04917608 -88.64808974 355.98806717 -93.79595947 356.04016113 C-94.67654085 356.04826939 -95.55712223 356.05637764 -96.46438789 356.0647316 C-98.05935397 356.0839207 -99.65425399 356.11185553 -101.24885368 356.1510582 C-105.27117628 356.20314984 -108.45197791 355.98813713 -112 354 C-114.08291616 348.66252735 -112.07637525 344.03086514 -110 339 C-109.67644531 338.42894531 -109.35289062 337.85789062 -109.01953125 337.26953125 C-107.12815091 333.05921716 -106.44681393 328.43661155 -105.5 323.93554688 C-105.05913006 321.9430214 -104.53570847 319.96914715 -104 318 C-103.34 317.67 -102.68 317.34 -102 317 C-101.5316735 314.41394668 -101.5316735 314.41394668 -101.375 311.4375 C-101.30023438 310.42558594 -101.22546875 309.41367187 -101.1484375 308.37109375 C-101.07496094 307.19740234 -101.07496094 307.19740234 -101 306 C-100.34 306 -99.68 306 -99 306 C-98.896875 304.989375 -98.79375 303.97875 -98.6875 302.9375 C-98.09564619 299.54779181 -97.20466677 297.05600103 -95.7578125 293.97265625 C-94.5252504 290.76418273 -94.0641112 287.42325344 -93.52734375 284.0390625 C-93.35332031 283.36617188 -93.17929687 282.69328125 -93 282 C-92.34 281.67 -91.68 281.34 -91 281 C-90.26924352 278.6859378 -89.59861742 276.35171131 -89 274 C-88.34 274 -87.68 274 -87 274 C-87.04640625 273.41992188 -87.0928125 272.83984375 -87.140625 272.2421875 C-87.44475441 265.65995815 -87.44475441 265.65995815 -85.0625 262.125 C-82.10379024 257.64210643 -82.1875012 253.26878358 -82 248 C-81.34 248 -80.68 248 -80 248 C-79.505 244.04 -79.505 244.04 -79 240 C-78.34 240 -77.68 240 -77 240 C-76.855625 238.700625 -76.71125 237.40125 -76.5625 236.0625 C-76.125 232.125 -76.125 232.125 -75 231 C-74.7746669 228.9720021 -74.55232815 226.94325126 -74.37890625 224.91015625 C-74 223 -74 223 -72 221 C-71.31246699 219.34183216 -70.64438717 217.67540664 -70 216 C-69.67 215.67 -69.34 215.34 -69 215 C-68.7180604 212.71315662 -68.55222995 210.42636727 -68.37890625 208.12890625 C-68 206 -68 206 -66 204 C-63.97352961 200.06626336 -63.63576105 196.33194559 -63.34375 191.98828125 C-63 190 -63 190 -61 188 C-60.60235737 186.01178687 -60.26224651 184.01055661 -60 182 C-59.34 182 -58.68 182 -58 182 C-57.896875 180.700625 -57.79375 179.40125 -57.6875 178.0625 C-57.22402273 173.84485681 -56.19367423 170.13548106 -54.765625 166.15234375 C-53.69374904 163.13905981 -52.85237808 160.0816746 -52 157 C-51.34 157 -50.68 157 -50 157 C-49.67 153.37 -49.34 149.74 -49 146 C-48.01 146 -47.02 146 -46 146 C-45.92652344 145.03900391 -45.92652344 145.03900391 -45.8515625 144.05859375 C-45.3959855 138.78803915 -44.6402621 134.03013712 -43 129 C-42.34 129 -41.68 129 -41 129 C-41.04125 128.05125 -41.0825 127.1025 -41.125 126.125 C-41 123 -41 123 -39 121 C-38.30696967 118.29194033 -37.69272097 115.60901706 -37.125 112.875 C-35.08693829 103.54803029 -35.08693829 103.54803029 -32.8125 99.4375 C-30.67992263 95.39295671 -30.32256559 92.51591822 -30 88 C-29.01 88 -28.02 88 -27 88 C-26.99742187 87.319375 -26.99484375 86.63875 -26.9921875 85.9375 C-26.66700969 77.78637613 -24.50311282 71.21841014 -21.47265625 63.76171875 C-20.0492943 60.23629974 -18.99184579 56.67273439 -18 53 C-16.40639358 47.31524434 -14.66324668 41.68820426 -12.875 36.0625 C-12.45927734 34.75055664 -12.45927734 34.75055664 -12.03515625 33.41210938 C-11.35764961 31.27445912 -10.67924519 29.13709833 -10 27 C-9.34 27 -8.68 27 -8 27 C-7.97421875 26.39414062 -7.9484375 25.78828125 -7.921875 25.1640625 C-7.46732356 18.4490981 -5.75214861 13.10569265 -3 7 C-2.41489939 5.62575109 -1.83134213 4.25084305 -1.25 2.875 C-0.8375 1.92625 -0.425 0.9775 0 0 Z " fill="#70706F" transform="translate(500,23)"/>
<path d="M0 0 C0.33 0 0.66 0 1 0 C1 2.97 1 5.94 1 9 C0.01 9 -0.98 9 -2 9 C-2 12.3 -2 15.6 -2 19 C2.23198323 20.05799581 6.09363347 20.15294463 10.41546631 20.15821838 C11.27234645 20.16315636 12.12922659 20.16809434 13.0120728 20.17318195 C15.88792939 20.18855969 18.76376364 20.19691834 21.63964844 20.20532227 C23.69932756 20.21490057 25.75900472 20.22491062 27.81867981 20.23532104 C33.41535932 20.26238132 39.01204726 20.28338484 44.60875607 20.30332303 C50.45575948 20.32517563 56.30273684 20.35256788 62.14971924 20.37937927 C73.22414475 20.42931596 84.29858472 20.47425119 95.37303853 20.51740164 C107.97992195 20.56676565 120.58677923 20.62168689 133.19363737 20.67708123 C159.12906719 20.79091627 185.06452209 20.89775202 211 21 C210.67 21.66 210.34 22.32 210 23 C182.68850232 23.07002307 155.37701806 23.12295529 128.06544876 23.15543652 C115.38474785 23.17091771 102.70410265 23.19203117 90.0234375 23.22631836 C78.97338282 23.25618235 67.92336848 23.27556588 56.87327456 23.28226548 C51.0201536 23.28618282 45.16714806 23.29541515 39.31406403 23.31719017 C33.80824418 23.33750789 28.30258763 23.34384334 22.79673386 23.33932304 C20.77303303 23.34015036 18.7493269 23.34614395 16.72565842 23.35761642 C13.96804654 23.37248672 11.21105567 23.3689736 8.45343018 23.36076355 C7.6479824 23.36950207 6.84253462 23.3782406 6.01267934 23.38724393 C2.74088677 23.36081594 0.40006365 23.22024297 -2.49513626 21.62637806 C-5.16500321 18.74092543 -4.5257885 15.68196524 -4.40625 11.94140625 C-3.79641061 7.52593453 -2.14328342 3.87513296 0 0 Z " fill="#0C3A37" transform="translate(27,674)"/>
<path d="M0 0 C0.99 0.33 1.98 0.66 3 1 C3 1.66 3 2.32 3 3 C6.86781026 4.28927009 10.52943641 4.15347722 14.56095886 4.15821838 C15.44556945 4.16315636 16.33018003 4.16809434 17.241597 4.17318195 C20.21729645 4.1885876 23.19297428 4.19692588 26.16870117 4.20532227 C28.29719738 4.21489838 30.42569168 4.2249083 32.55418396 4.23532104 C38.34306568 4.26240508 44.13195559 4.2833957 49.92086577 4.30332303 C55.96673439 4.32516101 62.0125777 4.35256039 68.0584259 4.37937927 C79.51183598 4.42933578 90.96526009 4.47426363 102.41869766 4.51740164 C115.45602079 4.56674875 128.49331853 4.62167623 141.53061712 4.67708123 C168.35372106 4.79094668 195.17684935 4.89777578 222 5 C221.67 5.66 221.34 6.32 221 7 C193.07115808 7.11675331 165.14235269 7.20494909 137.21331596 7.25906086 C124.24564333 7.28485267 111.27812224 7.32002215 98.31054688 7.37719727 C87.00923568 7.42700197 75.70803422 7.4592839 64.40661633 7.47044247 C58.42144063 7.47696612 52.43657891 7.49231938 46.45150375 7.52865028 C40.81920424 7.56256306 35.18734835 7.57306232 29.55495644 7.56553841 C27.48692859 7.56691505 25.41888605 7.57687534 23.35094643 7.59602737 C20.52800442 7.62089148 17.70673904 7.61492931 14.88375854 7.60127258 C14.06468171 7.61583679 13.24560488 7.630401 12.40170753 7.64540654 C8.28119085 7.59149405 5.7250306 7.19208146 2.44476509 4.58742046 C0 2 0 2 0 0 Z " fill="#0B3835" transform="translate(525,690)"/>
<path d="M0 0 C2.4375 0.75 2.4375 0.75 5 2 C5.8125 4.125 5.8125 4.125 6 6 C6.66 6 7.32 6 8 6 C8.33 9.63 8.66 13.26 9 17 C9.99 17.33 10.98 17.66 12 18 C14.22007739 23.08767736 15.75384642 28.3561024 17.30859375 33.6796875 C17.86631289 35.55135512 18.48615463 37.40444671 19.125 39.25 C20.04884824 42.15352304 20.56957405 44.98701834 21 48 C20.34 48 19.68 48 19 48 C19 46.35 19 44.7 19 43 C17.515 42.505 17.515 42.505 16 42 C16 39.69 16 37.38 16 35 C15.01 35 14.02 35 13 35 C12.855625 33.865625 12.71125 32.73125 12.5625 31.5625 C12.38828522 28.19222799 12.38828522 28.19222799 11 27 C10.85884839 24.32941149 10.95752893 21.67567762 11 19 C10.01 19 9.02 19 8 19 C8 18.01 8 17.02 8 16 C7.01 16 6.02 16 5 16 C4.21770766 12.57747103 4 9.49827791 4 6 C3.70955086 4.65667272 3.39044206 3.31774196 3 2 C2.01 2 1.02 2 0 2 C0 1.34 0 0.68 0 0 Z " fill="#062725" transform="translate(652,426)"/>
<path d="M0 0 C0.33 0 0.66 0 1 0 C1.02689216 1.47906892 1.04634621 2.95827483 1.0625 4.4375 C1.07410156 5.26121094 1.08570313 6.08492187 1.09765625 6.93359375 C1 9 1 9 0 10 C-0.36760731 12.32817964 -0.70241581 14.6618385 -1 17 C-1.99 17 -2.98 17 -4 17 C-4 18.65 -4 20.3 -4 22 C-4.66 22.33 -5.32 22.66 -6 23 C-6.125 17.25 -6.125 17.25 -5 15 C-4.34 15 -3.68 15 -3 15 C-3.061875 13.824375 -3.12375 12.64875 -3.1875 11.4375 C-3.21144173 6.96039699 -1.9879056 3.9758112 0 0 Z M-7 23 C-5.875 24.625 -5.875 24.625 -5 27 C-5.875 30.25 -5.875 30.25 -7 33 C-7.99 33 -8.98 33 -10 33 C-10 34.65 -10 36.3 -10 38 C-10.99 38 -11.98 38 -13 38 C-13 41.63 -13 45.26 -13 49 C-13.99 49 -14.98 49 -16 49 C-16.33 49.66 -16.66 50.32 -17 51 C-17 50.01 -17 49.02 -17 48 C-16.01 48 -15.02 48 -14 48 C-14.04640625 47.28714844 -14.0928125 46.57429688 -14.140625 45.83984375 C-14.39635516 39.05386124 -13.65624486 35.65056023 -10 30 C-9.63079809 28.00630969 -9.28674418 26.00720923 -9 24 C-8.34 23.67 -7.68 23.34 -7 23 Z " fill="#083E3F" transform="translate(208,165)"/>
<path d="M0 0 C0.33 0 0.66 0 1 0 C1 2.97 1 5.94 1 9 C0.34 9 -0.32 9 -1 9 C-1 11.64 -1 14.28 -1 17 C-1.99 17 -2.98 17 -4 17 C-4 20.63 -4 24.26 -4 28 C-4.99 28 -5.98 28 -7 28 C-7 28.99 -7 29.98 -7 31 C-7.66 31 -8.32 31 -9 31 C-9 33.64 -9 36.28 -9 39 C-9.99 39 -10.98 39 -12 39 C-12 41.31 -12 43.62 -12 46 C-12.99 46 -13.98 46 -15 46 C-14.25 39.25 -14.25 39.25 -12 37 C-11.39855234 35.13252618 -11.39855234 35.13252618 -11 33.0625 C-10.36105291 30.01038668 -9.80898416 28.71347624 -8 26 C-7.47519252 24.02650739 -7.47519252 24.02650739 -7.125 21.875 C-6.11180674 16.89891375 -4.21545377 12.54920846 -2 8 C-1.34 8 -0.68 8 0 8 C0 5.36 0 2.72 0 0 Z " fill="#063232" transform="translate(224,119)"/>
<path d="M0 0 C0.33 0 0.66 0 1 0 C1.33 2.64 1.66 5.28 2 8 C1.01 8 0.02 8 -1 8 C-1 11.63 -1 15.26 -1 19 C-1.99 19 -2.98 19 -4 19 C-4 20.65 -4 22.3 -4 24 C-4.99 24 -5.98 24 -7 24 C-7 25.98 -7 27.96 -7 30 C-7.66 30 -8.32 30 -9 30 C-9 32.64 -9 35.28 -9 38 C-9.99 38 -10.98 38 -12 38 C-12 36.02 -12 34.04 -12 32 C-11.34 32 -10.68 32 -10 32 C-9.95101562 31.36191406 -9.90203125 30.72382812 -9.8515625 30.06640625 C-9.77679688 29.24011719 -9.70203125 28.41382813 -9.625 27.5625 C-9.55539063 26.73878906 -9.48578125 25.91507813 -9.4140625 25.06640625 C-9.20910156 24.04353516 -9.20910156 24.04353516 -9 23 C-8.34 22.67 -7.68 22.34 -7 22 C-6.20058692 19.47630543 -5.5063892 17.00281094 -4.875 14.4375 C-4.69324219 13.72658203 -4.51148438 13.01566406 -4.32421875 12.28320312 C-3.87555535 10.52397031 -3.43684043 8.76220583 -3 7 C-2.34 7 -1.68 7 -1 7 C-0.67 4.69 -0.34 2.38 0 0 Z " fill="#073133" transform="translate(59,583)"/>
<path d="M0 0 C2.31 0 4.62 0 7 0 C7.66 1.32 8.32 2.64 9 4 C8.2575 3.7525 7.515 3.505 6.75 3.25 C3.92333432 2.69615603 3.92333432 2.69615603 1.75 4.5625 C-0.29733158 7.41414041 -0.6852134 9.53734736 -1 13 C-1.99 13 -2.98 13 -4 13 C-4 16.3 -4 19.6 -4 23 C-4.99 23 -5.98 23 -7 23 C-7.63535749 16.96410382 -5.37044405 12.39509668 -3 7 C-2.41635311 5.62513307 -1.83297515 4.2501519 -1.25 2.875 C-0.8375 1.92625 -0.425 0.9775 0 0 Z " fill="#2B4040" transform="translate(500,23)"/>
<path d="M0 0 C0.33 0 0.66 0 1 0 C1.28664818 5.70279012 0.31204692 10.31922538 -1.375 15.75 C-1.59671875 16.50410156 -1.8184375 17.25820312 -2.046875 18.03515625 C-3.0605628 21.39225174 -4.04296146 24.0644422 -6 27 C-6.39013716 28.9896995 -6.73202649 30.99019869 -7 33 C-7.33 33 -7.66 33 -8 33 C-8 30.03 -8 27.06 -8 24 C-7.34 24 -6.68 24 -6 24 C-6 21.36 -6 18.72 -6 16 C-5.01 16 -4.02 16 -3 16 C-3 13.36 -3 10.72 -3 8 C-2.34 8 -1.68 8 -1 8 C-1.020625 6.865625 -1.04125 5.73125 -1.0625 4.5625 C-1 1 -1 1 0 0 Z " fill="#0A312F" transform="translate(433,59)"/>
<path d="M0 0 C0.33 0 0.66 0 1 0 C1.09796875 0.556875 1.1959375 1.11375 1.296875 1.6875 C2.27144436 6.66116433 3.72065264 10.63936392 6.12109375 15.0859375 C7.43799861 17.95386364 7.64089667 20.88777112 8 24 C8.95584438 26.33588323 8.95584438 26.33588323 10 28 C8.02 27.34 6.04 26.68 4 26 C4 22.37 4 18.74 4 15 C3.01 14.67 2.02 14.34 1 14 C0.67 9.38 0.34 4.76 0 0 Z " fill="#282727" transform="translate(615,316)"/>
<path d="M0 0 C0.33 0 0.66 0 1 0 C1 2.64 1 5.28 1 8 C0.34 8 -0.32 8 -1 8 C-0.938125 9.19625 -0.87625 10.3925 -0.8125 11.625 C-0.8125 15.8016995 -1.90348071 18.35050346 -4 22 C-5.04311067 24.31645749 -6.01612746 26.65744633 -7 29 C-7.33 29 -7.66 29 -8 29 C-8.32283215 23.61946422 -7.53583348 20.69598793 -5 16 C-3.03938299 10.76207711 -1.49015847 5.387496 0 0 Z " fill="#042C2D" transform="translate(83,515)"/>
<path d="M0 0 C0.66 0 1.32 0 2 0 C2.49423788 5.93085452 1.9599992 9.94046242 -0.9765625 15.13671875 C-2.35494316 17.64621331 -3.17959128 20.26530425 -4 23 C-4.66 22.67 -5.32 22.34 -6 22 C-5.125 17.125 -5.125 17.125 -4 16 C-3.76924918 14.65252916 -3.58846937 13.29622435 -3.4375 11.9375 C-3.2209375 9.9884375 -3.2209375 9.9884375 -3 8 C-2.34 8 -1.68 8 -1 8 C-0.67 5.36 -0.34 2.72 0 0 Z " fill="#0A4A4A" transform="translate(183,233)"/>
<path d="M0 0 C0.33 0 0.66 0 1 0 C1.67360912 8.08330939 -0.55828345 13.7355197 -4 21 C-4.99 21 -5.98 21 -7 21 C-6.32105531 18.12101339 -5.4684916 15.35659825 -4.5 12.5625 C-3.42789949 9.39326631 -2.53416966 6.31185191 -2 3 C-1.34 3 -0.68 3 0 3 C0 2.01 0 1.02 0 0 Z " fill="#074544" transform="translate(127,393)"/>
<path d="M0 0 C0.99 0.495 0.99 0.495 2 1 C2 2.98 2 4.96 2 7 C2.66 7 3.32 7 4 7 C4.50471197 8.76949612 5.00360685 10.54065223 5.5 12.3125 C5.7784375 13.29863281 6.056875 14.28476562 6.34375 15.30078125 C7 18 7 18 7 21 C6.34 21 5.68 21 5 21 C5 20.34 5 19.68 5 19 C4.01 18.67 3.02 18.34 2 18 C2 14.7 2 11.4 2 8 C1.34 8 0.68 8 0 8 C0 5.36 0 2.72 0 0 Z " fill="#073331" transform="translate(717,594)"/>
<path d="M0 0 C2.53119316 3.79678974 3.87884235 6.10646236 4.5 10.6875 C4.665 11.780625 4.83 12.87375 5 14 C5.66 14.33 6.32 14.66 7 15 C7 17.64 7 20.28 7 23 C7.99 23 8.98 23 10 23 C10.33 25.97 10.66 28.94 11 32 C10.34 32 9.68 32 9 32 C9 29.36 9 26.72 9 24 C8.01 24 7.02 24 6 24 C6 21.36 6 18.72 6 16 C5.01 16 4.02 16 3 16 C3 13.36 3 10.72 3 8 C2.01 8 1.02 8 0 8 C0 5.36 0 2.72 0 0 Z " fill="#010F0C" transform="translate(687,512)"/>
<path d="M0 0 C0.66 0 1.32 0 2 0 C2.0825 0.99 2.165 1.98 2.25 3 C2.65897693 6.04596249 3.5327212 8.15836081 5.0625 10.8125 C7.59682381 15.46943437 7.38226782 19.8181473 7 25 C6.34 25 5.68 25 5 25 C5 21.7 5 18.4 5 15 C4.34 15 3.68 15 3 15 C3 13.02 3 11.04 3 9 C2.01 8.67 1.02 8.34 0 8 C0 5.36 0 2.72 0 0 Z " fill="#2C2A2A" transform="translate(576,211)"/>
<path d="M0 0 C0.33 0 0.66 0 1 0 C1 2.97 1 5.94 1 9 C0.01 9 -0.98 9 -2 9 C-2 12.3 -2 15.6 -2 19 C-1.34 19 -0.68 19 0 19 C-0.33 19.99 -0.66 20.98 -1 22 C-1.99 21.34 -2.98 20.68 -4 20 C-5.39667008 12.6391712 -3.5449249 6.40935083 0 0 Z " fill="#072C2F" transform="translate(27,674)"/>
<path d="M0 0 C0.33 0 0.66 0 1 0 C1.28875 1.0725 1.5775 2.145 1.875 3.25 C2.80232711 6.78528302 2.80232711 6.78528302 4.0625 9 C5 11 5 11 5.5 14.5625 C5.76535587 18.11295563 5.76535587 18.11295563 8 21 C7.01 21 6.02 21 5 21 C5 20.34 5 19.68 5 19 C4.01 18.67 3.02 18.34 2 18 C2 15.03 2 12.06 2 9 C1.34 9 0.68 9 0 9 C0 6.03 0 3.06 0 0 Z " fill="#181717" transform="translate(541,114)"/>
<path d="M0 0 C0.33 0 0.66 0 1 0 C1 2.97 1 5.94 1 9 C0.01 9 -0.98 9 -2 9 C-2.12117188 9.99902344 -2.24234375 10.99804688 -2.3671875 12.02734375 C-2.53476562 13.31769531 -2.70234375 14.60804688 -2.875 15.9375 C-3.03742188 17.22527344 -3.19984375 18.51304687 -3.3671875 19.83984375 C-3.57601563 20.88269531 -3.78484375 21.92554688 -4 23 C-4.66 23.33 -5.32 23.66 -6 24 C-6 19.71 -6 15.42 -6 11 C-5.01 11 -4.02 11 -3 11 C-3 10.01 -3 9.02 -3 8 C-2.01 8 -1.02 8 0 8 C0 5.36 0 2.72 0 0 Z " fill="#031818" transform="translate(325,395)"/>
<path d="M0 0 C0.66 0 1.32 0 2 0 C2 1.98 2 3.96 2 6 C1.34 6 0.68 6 0 6 C0 8.97 0 11.94 0 15 C-0.99 15 -1.98 15 -3 15 C-3 16.65 -3 18.3 -3 20 C-3.66 20 -4.32 20 -5 20 C-4.34579904 15.52962676 -3.29067712 11.32756447 -2 7 C-1.62330807 5.68798459 -1.24825153 4.3754983 -0.875 3.0625 C-0.441875 1.5465625 -0.441875 1.5465625 0 0 Z " fill="#043132" transform="translate(139,357)"/>
<path d="M0 0 C0.33 0 0.66 0 1 0 C1 2.97 1 5.94 1 9 C0.01 9.495 0.01 9.495 -1 10 C-1.58744209 12.48781725 -2.07717859 14.92148032 -2.5 17.4375 C-3.73282123 24.73282123 -3.73282123 24.73282123 -6 27 C-6 23.37 -6 19.74 -6 16 C-5.01 16 -4.02 16 -3 16 C-3 13.36 -3 10.72 -3 8 C-2.01 8 -1.02 8 0 8 C0 5.36 0 2.72 0 0 Z " fill="#061F1E" transform="translate(444,24)"/>
<path d="M0 0 C0.33 0 0.66 0 1 0 C1 2.97 1 5.94 1 9 C0.01 8.67 -0.98 8.34 -2 8 C-1.97679688 8.59167969 -1.95359375 9.18335938 -1.9296875 9.79296875 C-1.82588536 14.33801959 -1.86291643 17.85940059 -4 22 C-4.99 22 -5.98 22 -7 22 C-6.67 20.02 -6.34 18.04 -6 16 C-5.01 16 -4.02 16 -3 16 C-3.05220703 15.14728516 -3.05220703 15.14728516 -3.10546875 14.27734375 C-3.30230592 8.66279774 -2.55495317 5.00344995 0 0 Z " fill="#062F30" transform="translate(97,477)"/>
<path d="M0 0 C0.33 0 0.66 0 1 0 C1 1.98 1 3.96 1 6 C0.34 6 -0.32 6 -1 6 C-1 9.3 -1 12.6 -1 16 C-1.99 16.33 -2.98 16.66 -4 17 C-4 18.65 -4 20.3 -4 22 C-4.33 22 -4.66 22 -5 22 C-4.7219098 13.90757513 -3.48645046 7.32965398 0 0 Z " fill="#151617" transform="translate(478,89)"/>
<path d="M0 0 C0.99 0.33 1.98 0.66 3 1 C2.56699236 7.81987029 1.09212176 12.91643021 -2 19 C-2.33 19 -2.66 19 -3 19 C-3 16.03 -3 13.06 -3 10 C-2.01 10 -1.02 10 0 10 C0 6.7 0 3.4 0 0 Z " fill="#0B3632" transform="translate(243,674)"/>
<path d="M0 0 C3.39228531 4.27722931 4.12631248 7.26343886 4.0625 12.6875 C4.05347656 13.68136719 4.04445313 14.67523438 4.03515625 15.69921875 C4.02355469 16.45847656 4.01195312 17.21773438 4 18 C4.99 18 5.98 18 7 18 C7.33 19.32 7.66 20.64 8 22 C7.34 22 6.68 22 6 22 C6 21.01 6 20.02 6 19 C4.68 18.67 3.36 18.34 2 18 C2 14.04 2 10.08 2 6 C1.34 6 0.68 6 0 6 C0 4.02 0 2.04 0 0 Z " fill="#093C38" transform="translate(679,490)"/>
<path d="M0 0 C0.99 0.33 1.98 0.66 3 1 C2.67 4.3 2.34 7.6 2 11 C1.34 11 0.68 11 0 11 C-0.33 13.31 -0.66 15.62 -1 18 C-1.66 18 -2.32 18 -3 18 C-3 15.36 -3 12.72 -3 10 C-2.01 10 -1.02 10 0 10 C0 6.7 0 3.4 0 0 Z " fill="#0B3B37" transform="translate(343,333)"/>
<path d="M0 0 C0.33 0 0.66 0 1 0 C1 1.65 1 3.3 1 5 C0.34 5 -0.32 5 -1 5 C-1 7.97 -1 10.94 -1 14 C-1.66 14 -2.32 14 -3 14 C-3 15.65 -3 17.3 -3 19 C-3.99 19 -4.98 19 -6 19 C-5 14 -4 9 -3 4 C-2.01 4 -1.02 4 0 4 C0 2.68 0 1.36 0 0 Z " fill="#052D2E" transform="translate(153,320)"/>
<path d="M0 0 C0.99 0.33 1.98 0.66 3 1 C3 1.66 3 2.32 3 3 C6.17509982 4.05836661 8.64282383 4.20243789 11.98046875 4.31640625 C13.14384766 4.35830078 14.30722656 4.40019531 15.50585938 4.44335938 C16.72080078 4.48267578 17.93574219 4.52199219 19.1875 4.5625 C20.41404297 4.60568359 21.64058594 4.64886719 22.90429688 4.69335938 C25.93608381 4.7995309 28.96795315 4.90157952 32 5 C32 5.33 32 5.66 32 6 C27.41687916 6.11605098 22.83413551 6.18720362 18.25 6.25 C16.94804688 6.28351562 15.64609375 6.31703125 14.3046875 6.3515625 C13.05429687 6.36445312 11.80390625 6.37734375 10.515625 6.390625 C9.36352539 6.41157227 8.21142578 6.43251953 7.02441406 6.45410156 C3.37527338 5.90620023 2.20233476 4.90448931 0 2 C0 1.34 0 0.68 0 0 Z " fill="#0F4541" transform="translate(525,690)"/>
<path d="M0 0 C0.33 0 0.66 0 1 0 C1 2.97 1 5.94 1 9 C0.34 9 -0.32 9 -1 9 C-1 10.65 -1 12.3 -1 14 C-1.99 14 -2.98 14 -4 14 C-4 17.63 -4 21.26 -4 25 C-4.99 25 -5.98 25 -7 25 C-7.33 25.66 -7.66 26.32 -8 27 C-8 26.01 -8 25.02 -8 24 C-7.01 24 -6.02 24 -5 24 C-5.04640625 23.28714844 -5.0928125 22.57429688 -5.140625 21.83984375 C-5.39635516 15.05386124 -4.65624486 11.65056023 -1 6 C-0.21546654 2.72687532 -0.21546654 2.72687532 0 0 Z " fill="#031617" transform="translate(199,189)"/>
<path d="M0 0 C0.33 0 0.66 0 1 0 C1 1.98 1 3.96 1 6 C0.34 6 -0.32 6 -1 6 C-1 8.97 -1 11.94 -1 15 C-1.99 15 -2.98 15 -4 15 C-4 16.65 -4 18.3 -4 20 C-4.99 19.67 -5.98 19.34 -7 19 C-6.34 19 -5.68 19 -5 19 C-4.97421875 18.38253906 -4.9484375 17.76507813 -4.921875 17.12890625 C-4.49051026 10.68784636 -2.96932108 5.71766942 0 0 Z " fill="#052C2E" transform="translate(240,75)"/>
<path d="M0 0 C0.33 0.66 0.66 1.32 1 2 C0.34 2 -0.32 2 -1 2 C-1 4.64 -1 7.28 -1 10 C-1.99 10 -2.98 10 -4 10 C-4 12.31 -4 14.62 -4 17 C-4.99 17 -5.98 17 -7 17 C-6.25 10.25 -6.25 10.25 -4 8 C-3.67 6.824375 -3.34 5.64875 -3 4.4375 C-2.505 2.7359375 -2.505 2.7359375 -2 1 C-1.34 0.67 -0.68 0.34 0 0 Z " fill="#084949" transform="translate(216,148)"/>
<path d="M0 0 C0.66 0.33 1.32 0.66 2 1 C2.08159574 5.16138263 1.98248524 8.9472484 1 13 C1.99 13.33 2.98 13.66 4 14 C2.68 14.33 1.36 14.66 0 15 C-2.19671115 9.14210361 -1.88178944 5.9589999 0 0 Z " fill="#2C2D2C" transform="translate(389,363)"/>
<path d="M0 0 C0.66 0 1.32 0 2 0 C2 1.98 2 3.96 2 6 C1.34 6 0.68 6 0 6 C0 9.3 0 12.6 0 16 C-0.99 16.33 -1.98 16.66 -3 17 C-2.48517081 11.147205 -1.54642808 5.6702363 0 0 Z " fill="#1B1A1C" transform="translate(396,341)"/>
<path d="M0 0 C0.99 0 1.98 0 3 0 C3 2.64 3 5.28 3 8 C2.34 8 1.68 8 1 8 C0.67 9.98 0.34 11.96 0 14 C-0.66 14 -1.32 14 -2 14 C-2.042721 12.33388095 -2.04063832 10.66617115 -2 9 C-1.67 8.67 -1.34 8.34 -1 8 C-0.76924918 6.65252916 -0.58846937 5.29622435 -0.4375 3.9375 C-0.293125 2.638125 -0.14875 1.33875 0 0 Z " fill="#072F2D" transform="translate(248,660)"/>
<path d="M0 0 C0.33 0 0.66 0 1 0 C2.43481543 7.9347022 2.43481543 7.9347022 0.75 12.0625 C0.1725 12.701875 -0.405 13.34125 -1 14 C-1.99 14 -2.98 14 -4 14 C-3.125 9.125 -3.125 9.125 -2 8 C-1.835 6.845 -1.67 5.69 -1.5 4.5 C-1 1 -1 1 0 0 Z " fill="#063E3C" transform="translate(132,379)"/>
<path d="M0 0 C0.99 0 1.98 0 3 0 C3 1.98 3 3.96 3 6 C2.34 6 1.68 6 1 6 C0.67 8.97 0.34 11.94 0 15 C-0.66 15 -1.32 15 -2 15 C-2 12.36 -2 9.72 -2 7 C-1.34 7 -0.68 7 0 7 C0 4.69 0 2.38 0 0 Z " fill="#0A3634" transform="translate(367,260)"/>
<path d="M0 0 C0.99 0 1.98 0 3 0 C3.40652968 5.42039575 2.03993514 9.07015675 0 14 C-0.66 14 -1.32 14 -2 14 C-2 12.02 -2 10.04 -2 8 C-1.34 8 -0.68 8 0 8 C0 5.36 0 2.72 0 0 Z " fill="#083736" transform="translate(348,319)"/>
<path d="M0 0 C0.33 0 0.66 0 1 0 C2.44154827 4.27269711 3.80507356 8.56324029 5.125 12.875 C5.47820313 14.02742187 5.83140625 15.17984375 6.1953125 16.3671875 C6.46085938 17.23601562 6.72640625 18.10484375 7 19 C6.34 19.33 5.68 19.66 5 20 C5 18.35 5 16.7 5 15 C4.01 15 3.02 15 2 15 C2 12.36 2 9.72 2 7 C1.34 7 0.68 7 0 7 C0 4.69 0 2.38 0 0 Z " fill="#171415" transform="translate(566,183)"/>
<path d="M0 0 C0.33 0 0.66 0 1 0 C1 1.65 1 3.3 1 5 C0.34 5 -0.32 5 -1 5 C-1 8.63 -1 12.26 -1 16 C-1.99 16 -2.98 16 -4 16 C-4.6319296 9.99666876 -2.37544123 5.36595205 0 0 Z " fill="#131617" transform="translate(497,30)"/>
<path d="M0 0 C3.07202224 4.60803336 5.50112337 8.32060178 5 14 C4.01 14 3.02 14 2 14 C2 11.69 2 9.38 2 7 C1.34 7 0.68 7 0 7 C0 4.69 0 2.38 0 0 Z " fill="#062928" transform="translate(674,476)"/>
<path d="M0 0 C0.99 0 1.98 0 3 0 C2.125 4.875 2.125 4.875 1 6 C0.60851239 7.51165654 0.26027543 9.03469632 -0.0625 10.5625 C-0.23910156 11.38878906 -0.41570312 12.21507812 -0.59765625 13.06640625 C-0.73042969 13.70449219 -0.86320312 14.34257812 -1 15 C-1.33 15 -1.66 15 -2 15 C-2 11.7 -2 8.4 -2 5 C-1.34 5 -0.68 5 0 5 C0 3.35 0 1.7 0 0 Z " fill="#072423" transform="translate(408,135)"/>
<path d="M0 0 C0.66 0 1.32 0 2 0 C2 1.32 2 2.64 2 4 C1.34 4 0.68 4 0 4 C-0.144375 4.928125 -0.28875 5.85625 -0.4375 6.8125 C-1 10 -1 10 -2 13 C-2.99 13 -3.98 13 -5 13 C-4.39254603 8.14036821 -2.27241033 4.2594482 0 0 Z " fill="#073E3D" transform="translate(255,39)"/>
<path d="M0 0 C0.66 0 1.32 0 2 0 C2 2.31 2 4.62 2 7 C1.34 7 0.68 7 0 7 C0 9.64 0 12.28 0 15 C-0.99 15 -1.98 15 -3 15 C-2 10 -1 5 0 0 Z " fill="#282829" transform="translate(407,305)"/>
<path d="M0 0 C0.33 0 0.66 0 1 0 C1 2.31 1 4.62 1 7 C0.34 7 -0.32 7 -1 7 C-1 9.64 -1 12.28 -1 15 C-1.99 15 -2.98 15 -4 15 C-3.67 12.03 -3.34 9.06 -3 6 C-2.01 5.67 -1.02 5.34 0 5 C0 3.35 0 1.7 0 0 Z " fill="#042728" transform="translate(72,546)"/>
<path d="M0 0 C0.99 0 1.98 0 3 0 C1.58192622 4.47238653 -0.11304374 8.71146306 -2 13 C-2.33 13 -2.66 13 -3 13 C-3.31563182 7.73946963 -2.66590937 4.55426184 0 0 Z " fill="#094E4E" transform="translate(78,531)"/>
<path d="M0 0 C0.33 0 0.66 0 1 0 C1.38281159 5.23175837 0.21854707 8.37802694 -2 13 C-2.99 13 -3.98 13 -5 13 C-4.55005243 11.20620902 -4.08975857 9.41501072 -3.625 7.625 C-3.36976563 6.62726562 -3.11453125 5.62953125 -2.8515625 4.6015625 C-2 2 -2 2 0 0 Z " fill="#074849" transform="translate(249,52)"/>
<path d="M0 0 C0.99 0 1.98 0 3 0 C3 1.32 3 2.64 3 4 C3.66 4 4.32 4 5 4 C5 7.3 5 10.6 5 14 C2.71194223 11.71194223 2.54417401 10.66724344 1.9375 7.5625 C1.41445483 4.93862879 0.84906993 2.54720979 0 0 Z " fill="#083130" transform="translate(496,604)"/>
<path d="M0 0 C0.33 0 0.66 0 1 0 C1 2.64 1 5.28 1 8 C0.01 8 -0.98 8 -2 8 C-2 10.31 -2 12.62 -2 15 C-2.99 14.67 -3.98 14.34 -5 14 C-3.70022952 9.1008651 -2.07626313 4.62440425 0 0 Z " fill="#062D2E" transform="translate(89,499)"/>
<path d="M0 0 C0.33 0 0.66 0 1 0 C1 4.29 1 8.58 1 13 C0.01 13 -0.98 13 -2 13 C-1.85851011 11.3954444 -1.71164314 9.79136233 -1.5625 8.1875 C-1.48128906 7.29417969 -1.40007812 6.40085938 -1.31640625 5.48046875 C-1 3 -1 3 0 0 Z " fill="#1A191B" transform="translate(457,152)"/>
<path d="M0 0 C0.5625 1.9375 0.5625 1.9375 1 4 C0.67 4.33 0.34 4.66 0 5 C-0.23075082 6.34747084 -0.41153063 7.70377565 -0.5625 9.0625 C-0.7790625 11.0115625 -0.7790625 11.0115625 -1 13 C-1.99 13 -2.98 13 -4 13 C-3.125 5.25 -3.125 5.25 -2 3 C-1.34 3 -0.68 3 0 3 C0 2.01 0 1.02 0 0 Z " fill="#282F30" transform="translate(492,47)"/>
<path d="M0 0 C0.33 0 0.66 0 1 0 C1 1.98 1 3.96 1 6 C0.34 6 -0.32 6 -1 6 C-1 8.64 -1 11.28 -1 14 C-1.99 14 -2.98 14 -4 14 C-4 12.02 -4 10.04 -4 8 C-3.34 8 -2.68 8 -2 8 C-2 7.01 -2 6.02 -2 5 C-1.34 5 -0.68 5 0 5 C0 3.35 0 1.7 0 0 Z " fill="#08504F" transform="translate(51,607)"/>
<path d="M0 0 C0.33 0 0.66 0 1 0 C1.33 2.64 1.66 5.28 2 8 C1.01 8 0.02 8 -1 8 C-1 11.63 -1 15.26 -1 19 C-1.33 19 -1.66 19 -2 19 C-2.19818283 12.29481414 -2.30844801 6.34823202 0 0 Z " fill="#095152" transform="translate(59,583)"/>
<path d="M0 0 C4.875 1.75 4.875 1.75 6 4 C6.07033769 5.87379605 6.0843022 7.75001102 6.0625 9.625 C6.05347656 10.62789063 6.04445313 11.63078125 6.03515625 12.6640625 C6.02355469 13.43492187 6.01195312 14.20578125 6 15 C6.66 15.33 7.32 15.66 8 16 C7.01 16 6.02 16 5 16 C4.21770766 12.57747103 4 9.49827791 4 6 C3.70955086 4.65667272 3.39044206 3.31774196 3 2 C2.01 2 1.02 2 0 2 C0 1.34 0 0.68 0 0 Z " fill="#0C4B49" transform="translate(652,426)"/>
<path d="M0 0 C0.33 0 0.66 0 1 0 C1.04254356 1.99954746 1.04080783 4.00041636 1 6 C0.67 6.33 0.34 6.66 0 7 C-0.2165625 8.7325 -0.2165625 8.7325 -0.4375 10.5 C-0.623125 11.655 -0.80875 12.81 -1 14 C-1.99 14.495 -1.99 14.495 -3 15 C-3 11.7 -3 8.4 -3 5 C-2.01 5 -1.02 5 0 5 C0 3.35 0 1.7 0 0 Z " fill="#041716" transform="translate(333,371)"/>
<path d="M0 0 C0.33 0 0.66 0 1 0 C1.33 3.96 1.66 7.92 2 12 C2.66 12 3.32 12 4 12 C4.33 13.32 4.66 14.64 5 16 C3.68 16 2.36 16 1 16 C0.08342019 10.61509359 -0.11138159 5.45769811 0 0 Z " fill="#2B2A2A" transform="translate(596,263)"/>
<path d="M0 0 C0.66 0 1.32 0 2 0 C1.36843005 5.05255964 -0.13459373 9.29593201 -2 14 C-2.33 14 -2.66 14 -3 14 C-3 11.03 -3 8.06 -3 5 C-2.01 5 -1.02 5 0 5 C0 3.35 0 1.7 0 0 Z " fill="#051818" transform="translate(417,111)"/>
<path d="M0 0 C0.33 0 0.66 0 1 0 C1.09688221 5.44693314 1.12862175 10.63904667 0 16 C-0.66 16 -1.32 16 -2 16 C-2 13.36 -2 10.72 -2 8 C-1.34 8 -0.68 8 0 8 C0 5.36 0 2.72 0 0 Z " fill="#12605A" transform="translate(437,42)"/>
<path d="M0 0 C2.75861118 4.13791677 4.27302852 6.71703018 4.125 11.75 C4.10695313 12.54921875 4.08890625 13.3484375 4.0703125 14.171875 C4.03550781 15.07679688 4.03550781 15.07679688 4 16 C3.67 16 3.34 16 3 16 C3 13.36 3 10.72 3 8 C2.01 8 1.02 8 0 8 C0 5.36 0 2.72 0 0 Z " fill="#052926" transform="translate(687,512)"/>
<path d="M0 0 C0.99 0.495 0.99 0.495 2 1 C2.59765625 3.1796875 2.59765625 3.1796875 3.0625 5.875 C3.56270702 8.7108844 4.08689283 11.26067849 5 14 C4.01 14 3.02 14 2 14 C2 11.36 2 8.72 2 6 C1.34 6 0.68 6 0 6 C0 4.02 0 2.04 0 0 Z " fill="#161514" transform="translate(528,78)"/>
<path d="M0 0 C2 1 2 1 2.8515625 3.50390625 C3.10679687 4.51324219 3.36203125 5.52257812 3.625 6.5625 C3.88539063 7.57441406 4.14578125 8.58632812 4.4140625 9.62890625 C4.60742188 10.41136719 4.80078125 11.19382812 5 12 C2 11 2 11 0.8125 9.375 C-0.27499354 6.19617272 -0.1282071 3.33338467 0 0 Z " fill="#2F2E2F" transform="translate(533,94)"/>
<path d="M0 0 C0.33 0 0.66 0 1 0 C3.1583195 6.07027358 3.20852314 11.59370576 3 18 C2.67 18 2.34 18 2 18 C2 15.03 2 12.06 2 9 C1.34 9 0.68 9 0 9 C0 6.03 0 3.06 0 0 Z " fill="#414041" transform="translate(541,114)"/>
<path d="M0 0 C0.99 0.495 0.99 0.495 2 1 C2.4140625 3.06640625 2.4140625 3.06640625 2.625 5.5625 C2.69976563 6.38878906 2.77453125 7.21507812 2.8515625 8.06640625 C2.92503906 9.02353516 2.92503906 9.02353516 3 10 C2.01 10 1.02 10 0 10 C0 6.7 0 3.4 0 0 Z " fill="#062927" transform="translate(706,564)"/>
<path d="M0 0 C0.33 0 0.66 0 1 0 C1 2.97 1 5.94 1 9 C0.01 9 -0.98 9 -2 9 C-1.125 1.125 -1.125 1.125 0 0 Z " fill="#323334" transform="translate(425,254)"/>
<path d="M0 0 C0.66 0 1.32 0 2 0 C2.33 2.97 2.66 5.94 3 9 C2.01 9 1.02 9 0 9 C0 6.03 0 3.06 0 0 Z " fill="#0B403C" transform="translate(730,631)"/>
<path d="M0 0 C0.99 0 1.98 0 3 0 C3 1.98 3 3.96 3 6 C2.34 6 1.68 6 1 6 C0.67 6.66 0.34 7.32 0 8 C0 5.36 0 2.72 0 0 Z " fill="#093937" transform="translate(378,227)"/>
<path d="M0 0 C0.33 0 0.66 0 1 0 C1 3.63 1 7.26 1 11 C0.01 11 -0.98 11 -2 11 C-1.34 7.37 -0.68 3.74 0 0 Z " fill="#021414" transform="translate(56,590)"/>
<path d="M0 0 C1.98 0.495 1.98 0.495 4 1 C3.34 2.65 2.68 4.3 2 6 C1.01 6 0.02 6 -1 6 C-0.67 4.02 -0.34 2.04 0 0 Z " fill="#0B5250" transform="translate(91,493)"/>
<path d="M0 0 C0.99 0 1.98 0 3 0 C3 2.97 3 5.94 3 9 C1.35649921 5.71299843 0.58678331 3.52069985 0 0 Z " fill="#062826" transform="translate(493,593)"/>
<path d="M0 0 C0.33 0 0.66 0 1 0 C1 2.31 1 4.62 1 7 C0.01 7 -0.98 7 -2 7 C-2.125 4.625 -2.125 4.625 -2 2 C-1.34 1.34 -0.68 0.68 0 0 Z " fill="#053535" transform="translate(100,470)"/>
<path d="M0 0 C1.125 1.625 1.125 1.625 2 4 C1.125 7.25 1.125 7.25 0 10 C-0.33 10 -0.66 10 -1 10 C-1.02689216 8.52093108 -1.04634621 7.04172517 -1.0625 5.5625 C-1.07410156 4.73878906 -1.08570313 3.91507813 -1.09765625 3.06640625 C-1 1 -1 1 0 0 Z " fill="#0C6F6A" transform="translate(201,188)"/>
<path d="M0 0 C0.99 0 1.98 0 3 0 C2.74438677 2.3431213 2.40729228 4.67843403 2 7 C1.01 7.495 1.01 7.495 0 8 C0 5.36 0 2.72 0 0 Z " fill="#0A3A37" transform="translate(351,311)"/>
<path d="M0 0 C2.5654594 2.5654594 2.54046087 4.47686668 3 8 C2.01 8 1.02 8 0 8 C0 5.36 0 2.72 0 0 Z " fill="#262526" transform="translate(538,106)"/>
</svg>
